PathFileType	4	(X/Y/Z)	C:\Users\Basilio\Documents\Thesis Gigler\squatting_fais\c3dfiles\047\SLS_pre_back2\markers_experimental.trc
DataRate	CameraRate	NumFrames	NumMarkers	Units	OrigDataRate	OrigDataStartFrame	OrigNumFrames
200.000000	200.000000	4	62	mm	200.000000	323	1295
Frame#	Time	FHD			LBHD			RBHD			C7			T10			CLAV			LSHO			LUUPA			LMUPA			LDUPA			LLEP			LMEP			LRAD			LUL			LRFIN			RSHO			RUPA1			RMUPA			RDUPA			RLEP			RMEP			RUL			RUFIN			LASI			RASI			USACR			LSACR			RSACR			LTHI1			LTHI2			LTHI3			LTHI4			LLFC			LMFC			LTIB1			LTIB2			LTIB3			LTIB4			LLMAL			LMMAL			LMT1			LMT2			LMT5			RTHI			RTHI2			RTHI3			RTHI4			RLFC			RMFC			RTIB1			RTIB2			RTIB3			RTIB4			RLMAL			RHEE			RMT1			RMT2			RMT5			RMMAL			RRAD			*60			*61			
		X1	Y1	Z1	X2	Y2	Z2	X3	Y3	Z3	X4	Y4	Z4	X5	Y5	Z5	X6	Y6	Z6	X7	Y7	Z7	X8	Y8	Z8	X9	Y9	Z9	X10	Y10	Z10	X11	Y11	Z11	X12	Y12	Z12	X13	Y13	Z13	X14	Y14	Z14	X15	Y15	Z15	X16	Y16	Z16	X17	Y17	Z17	X18	Y18	Z18	X19	Y19	Z19	X20	Y20	Z20	X21	Y21	Z21	X22	Y22	Z22	X23	Y23	Z23	X24	Y24	Z24	X25	Y25	Z25	X26	Y26	Z26	X27	Y27	Z27	X28	Y28	Z28	X29	Y29	Z29	X30	Y30	Z30	X31	Y31	Z31	X32	Y32	Z32	X33	Y33	Z33	X34	Y34	Z34	X35	Y35	Z35	X36	Y36	Z36	X37	Y37	Z37	X38	Y38	Z38	X39	Y39	Z39	X40	Y40	Z40	X41	Y41	Z41	X42	Y42	Z42	X43	Y43	Z43	X44	Y44	Z44	X45	Y45	Z45	X46	Y46	Z46	X47	Y47	Z47	X48	Y48	Z48	X49	Y49	Z49	X50	Y50	Z50	X51	Y51	Z51	X52	Y52	Z52	X53	Y53	Z53	X54	Y54	Z54	X55	Y55	Z55	X56	Y56	Z56	X57	Y57	Z57	X58	Y58	Z58	X59	Y59	Z59	X60	Y60	Z60	X61	Y61	Z61	X62	Y62	Z62	

324	1.615	-143.3803253173828	1737.553466796875	-1098.41015625	-321.4223632812501	1700.800048828125	-1120.688110351563	-296.4323425292969	1707.680541992188	-973.8709106445315	-340.8259582519532	1524.278564453125	-1045.502685546875	-376.3738708496094	1217.423950195313	-1022.414367675781	-192.954330444336	1464.790649414063	-1079.185791015625	-274.9702453613282	1481.042358398438	-1230.118530273438	-217.6175231933594	1322.619140625	-1323.929565429688	-172.0796051025391	1346.099853515625	-1325.097290039063	-157.3656616210938	1288.755859375	-1335.187377929688	-86.14857482910158	1271.698364257813	-1340.744018554688	-99.66074371337893	1225.834594726563	-1263.058837890625	87.93086242675783	1383.156616210938	-1188.66015625	124.7253952026367	1317.467041015625	-1182.408447265625	178.3043518066407	1395.069091796875	-1181.051147460938	-220.0152893066407	1499.548583984375	-915.8345947265627	-118.3128509521485	1361.952758789063	-820.4292602539065	-80.77204895019533	1382.861083984375	-843.5852661132815	-56.20790100097658	1331.084594726563	-826.0770263671877	16.28766250610352	1317.697021484375	-848.4831542968752	-15.24968433380127	1249.060913085938	-896.4338378906252	173.8882751464844	1340.096801757813	-1059.239379882813	146.9060821533203	1418.757202148438	-1099.640380859375	-221.7945404052735	979.441833496094	-1118.3671875	-207.6458129882813	1002.634338378906	-890.429138183594	-391.5224609375001	1081.092407226563	-1005.429992675781	-401.3285217285157	1047.58740234375	-1030.050048828125	-396.013885498047	1052.955444335938	-972.1675415039065	-299.1391296386719	823.1054687500002	-1181.120727539063	-258.3783569335938	749.0089111328126	-1178.18994140625	-210.532211303711	756.6691894531251	-1166.01220703125	-282.4463195800782	693.1901245117189	-1171.16259765625	-290.1448974609376	523.7821044921876	-1127.474365234375	-254.9271850585938	521.1384277343751	-1009.990478515625	-271.1401367187501	340.9884643554688	-1026.343994140625	-284.9794311523438	291.8959045410157	-1097.714477539063	-268.9989624023438	290.4411926269532	-1052.760375976563	-290.6617431640626	217.3005828857422	-1018.609558105469	-350.0783081054688	125.1604995727539	-1059.140258789063	-328.3161010742188	139.9596710205078	-972.552429199219	-208.2400665283204	64.37509155273439	-991.2012939453127	-208.7953491210938	61.20814132690431	-1036.20703125	-259.0515441894532	50.53884887695314	-1080.094604492188	-261.6317443847657	827.564392089844	-783.9489746093752	-212.3288574218751	782.823181152344	-777.6260375976565	-182.7500305175782	788.4562988281252	-790.8897705078127	-221.2514953613282	699.4963989257814	-770.5278930664065	-194.8742675781251	569.2750854492189	-782.1104125976565	-188.0886383056641	538.6657714843751	-909.5171508789065	-279.0211486816407	478.6036682128907	-784.5032348632815	-376.6140136718751	518.1729125976564	-752.5328369140626	-361.2418212890626	474.1712646484376	-758.8385009765626	-404.5173645019532	443.4061584472657	-787.7484130859377	-568.4773559570314	460.8304748535157	-758.4782714843751	-597.1047363281251	504.998016357422	-821.1322021484377	-606.9446411132814	296.9409484863282	-812.0984497070315	-608.9669189453126	296.4030456542969	-767.4877929687501	-645.2883300781251	349.3649597167969	-724.7644653320314	-543.9861450195314	423.0377807617189	-838.9719848632815	nan	nan	nan	nan	nan	nan	nan	nan	nan	
325	1.62	-142.8484039306641	1737.227905273438	-1098.164306640625	-320.6484069824219	1699.892211914063	-1120.59912109375	-295.9532775878907	1707.56982421875	-973.5017700195315	-340.5148010253907	1524.223876953125	-1045.392944335938	-376.4611816406251	1217.407470703125	-1022.233032226563	-192.6497650146485	1464.541870117188	-1079.242553710938	-274.4959106445313	1480.851318359375	-1230.108276367188	-217.2812805175782	1322.3662109375	-1323.965454101563	-171.9749298095703	1345.964111328125	-1325.031860351563	-157.2394714355469	1288.45068359375	-1335.217529296875	-85.94022369384767	1271.45166015625	-1340.824829101563	-99.68876647949222	1225.792358398438	-1263.239868164063	88.27122497558595	1382.618530273438	-1188.732788085938	125.1908874511719	1317.080932617188	-1182.668090820313	178.6614379882813	1394.697387695313	-1181.2470703125	-219.0565643310547	1499.348266601563	-916.045104980469	-117.8615493774414	1361.9580078125	-821.025573730469	-80.24582672119142	1382.701782226563	-843.6975708007815	-55.23495864868165	1330.682006835938	-826.9062500000002	16.96843338012696	1317.181274414063	-848.3123779296877	-15.06818771362305	1248.7607421875	-896.3984985351565	174.5140533447266	1339.7412109375	-1059.765380859375	147.5252685546875	1418.396362304688	-1100.00634765625	-222.5368652343751	979.075866699219	-1118.05908203125	-208.0850219726563	1002.4501953125	-890.4163208007815	-392.1204528808595	1081.02978515625	-1005.308715820313	-401.6873474121095	1047.415405273438	-1029.936767578125	-396.464569091797	1052.94873046875	-972.056579589844	-299.4574584960938	822.8288574218752	-1181.150146484375	-258.5072937011719	748.8978271484376	-1178.290771484375	-210.6314544677735	756.6907348632814	-1166.238403320313	-282.4731445312501	693.0709228515626	-1171.472900390625	-289.5524902343751	523.5757446289064	-1127.874267578125	-251.7624053955079	522.7926635742189	-1010.030822753906	-270.8812866210938	340.9860839843751	-1025.911743164063	-284.7345275878907	291.7785034179688	-1098.047729492188	-268.6286010742188	290.3894348144532	-1053.033203125	-290.3616333007813	217.5516967773438	-1018.514343261719	-350.1065673828126	125.1533966064453	-1059.250366210938	-328.2548828125001	139.9652404785157	-972.6817016601565	-208.2639617919922	64.43190002441408	-991.264831542969	-208.8278808593751	61.11338043212892	-1036.234008789063	-259.0639343261719	50.43678665161134	-1080.123413085938	-262.2644958496094	827.2822265625002	-783.952819824219	-212.6947174072266	782.5133056640627	-778.1667480468752	-183.4241180419922	788.2829589843752	-790.7017822265627	-221.8819427490235	699.2662353515626	-770.1893310546877	-195.3906707763672	569.1137084960939	-782.1685791015627	-188.5372619628907	538.5620727539064	-909.548278808594	-279.5995788574219	478.4608154296876	-784.316833496094	-377.2154846191407	518.1896362304689	-752.5745849609376	-361.8143310546876	473.9873962402345	-758.7875366210939	-405.0056152343751	443.2129516601564	-787.9485473632815	-569.0324707031251	461.0945129394532	-758.5372314453126	-597.4476318359376	504.9385375976564	-821.2030029296877	-607.3637695312501	297.1156616210938	-812.2393188476565	-609.4569702148439	296.5130615234376	-767.3718872070314	-645.6851806640626	349.2410583496094	-724.8035278320314	-544.5551757812501	423.1535949707032	-839.0989379882815	nan	nan	nan	nan	nan	nan	nan	nan	nan	
326	1.625	-142.2865447998047	1736.76953125	-1097.812377929688	-319.9609985351563	1699.811279296875	-1120.589965820313	-294.9549560546876	1707.485717773438	-973.9892578125002	-340.0093688964844	1524.117919921875	-1045.291381835938	-376.6476745605469	1217.255615234375	-1022.096618652344	-192.1634979248047	1464.203002929688	-1079.219848632813	-274.0562438964844	1480.666870117188	-1230.071166992188	-217.0331420898438	1322.045288085938	-1323.98779296875	-171.7997589111328	1345.754760742188	-1325.019653320313	-156.8668975830078	1288.253662109375	-1335.257080078125	-85.76182556152345	1271.205932617188	-1340.942016601563	-99.74050140380862	1225.833129882813	-1263.811157226563	88.97962188720705	1382.501220703125	-1189.295043945313	125.4764022827149	1316.739013671875	-1182.919921875	179.0516815185547	1394.291015625	-1181.528198242188	-218.7308044433594	1498.809936523438	-915.985046386719	-117.3529891967774	1361.585083007813	-820.963562011719	-79.83719635009767	1382.4296875	-843.6777954101565	-54.79779052734376	1330.292114257813	-826.885437011719	17.37772750854493	1316.968139648438	-848.825378417969	-14.64153575897217	1248.435546875	-896.5378417968752	174.5018005371094	1339.0673828125	-1059.48583984375	147.9923248291016	1418.004028320313	-1100.314575195313	-222.8909301757813	978.8652954101565	-1118.199584960938	-208.7189331054688	1002.07421875	-890.1492919921877	-392.6172485351564	1080.853637695313	-1005.211303710938	-402.1514587402345	1047.2578125	-1029.941162109375	-396.8669738769532	1052.872680664063	-971.9158935546877	-299.7437744140626	822.5835571289065	-1181.207763671875	-258.6441955566407	748.8066406250001	-1178.408935546875	-210.7830657958985	756.6195678710939	-1166.484008789063	-282.5221557617188	692.8567504882814	-1171.714477539063	-288.9840087890626	523.3150634765626	-1128.192138671875	-251.464340209961	522.4099731445314	-1010.163757324219	-270.0285034179688	340.9816894531251	-1027.003662109375	-284.3230590820313	291.7864990234376	-1098.358276367188	-268.0659484863282	290.2901916503907	-1053.24169921875	-290.2179260253907	217.4071197509766	-1018.486328125	-350.0578002929688	125.1346588134766	-1059.301147460938	-328.1307373046876	140.2380828857422	-972.8879394531252	-208.2717895507813	64.39427185058595	-991.2951660156252	-208.8578033447266	61.09669494628908	-1036.292724609375	-259.0951232910157	50.36328887939455	-1080.134765625	-262.8137207031251	827.1260375976565	-783.9289550781252	-213.2220153808594	782.3533325195315	-778.3577270507815	-183.8903198242188	788.045104980469	-790.698913574219	-222.4323883056641	699.0115356445314	-770.2883911132815	-195.9721832275391	568.8621826171876	-782.122741699219	-189.1891784667969	538.3643798828126	-909.5588989257815	-280.0694885253907	478.3783264160157	-784.5654907226565	-377.8139343261719	518.1112670898439	-752.5799560546876	-362.5281982421876	473.895965576172	-758.7772827148439	-405.4265747070314	443.2183532714845	-788.259460449219	-569.5420532226564	460.838592529297	-758.5197753906251	-598.0431518554689	504.8626098632814	-821.219421386719	-607.8868408203126	297.1983642578126	-812.371520996094	-610.1138305664064	296.5451354980469	-767.5853271484376	-646.3383789062501	349.1600341796876	-724.6362915039064	-545.1270141601564	423.1860351562501	-839.2574462890627	nan	nan	nan	nan	nan	nan	nan	nan	nan	
327	1.63	-141.0419921875	1736.37158203125	-1098.576538085938	-319.1757202148438	1699.673583984375	-1120.536376953125	-294.1083374023438	1707.149780273438	-973.9085693359377	-339.5152587890626	1523.927001953125	-1045.191162109375	-376.8168640136719	1217.157348632813	-1022.002685546875	-192.0213928222657	1463.531005859375	-1078.850952148438	-273.8070068359376	1480.433959960938	-1229.979248046875	-216.8785705566407	1321.87548828125	-1323.931030273438	-171.4740447998047	1345.476318359375	-1325.030883789063	-156.7218170166016	1287.985107421875	-1335.33740234375	-85.46155548095705	1270.917846679688	-1341.031616210938	-99.50748443603518	1225.825927734375	-1264.340087890625	89.39354705810548	1382.034301757813	-1189.467041015625	125.9571533203125	1316.386352539063	-1183.238525390625	179.3617095947266	1393.898193359375	-1181.716796875	-218.5304718017579	1498.595092773438	-915.7913208007815	-116.6479949951172	1361.4248046875	-821.3610839843752	-79.43162536621095	1382.07275390625	-843.7279052734377	-54.34758377075197	1330.04345703125	-826.9136352539065	17.72425079345703	1316.598999023438	-848.9698486328127	-13.86731147766114	1247.931762695313	-897.027282714844	174.9739074707032	1338.70068359375	-1060.036865234375	148.218246459961	1417.546508789063	-1100.264038085938	-223.3536834716797	978.6333007812502	-1118.301025390625	-209.1541748046876	1001.887329101563	-890.3703613281252	-392.9968566894532	1080.754028320313	-1005.141418457031	-402.5965576171876	1047.159790039063	-1029.87646484375	-397.1517944335939	1052.783569335938	-971.795104980469	-300.1309509277344	822.3022460937502	-1181.272094726563	-258.8617248535157	748.7817993164064	-1178.517333984375	-210.9541473388672	756.5572509765626	-1166.804565429688	-282.5455017089844	692.6694335937501	-1171.99267578125	-288.3982543945313	523.1864624023439	-1128.437255859375	-250.0041503906251	522.5544433593751	-1010.787780761719	-269.6148071289063	340.8686828613282	-1027.206787109375	-283.8321228027344	291.8591613769532	-1098.139404296875	-267.5957641601563	289.7979125976563	-1053.3916015625	-290.0254516601563	217.2938995361329	-1018.644409179688	-350.0585021972657	125.119384765625	-1059.348510742188	-328.0854187011719	140.2332305908203	-972.893249511719	-208.1976165771485	64.40270996093751	-991.316589355469	-208.8508911132813	61.06727600097658	-1036.30224609375	-259.0779418945313	50.36711883544923	-1080.176025390625	-263.4298706054688	826.8316040039065	-783.8106689453127	-213.9491271972657	782.1613769531252	-778.1077270507815	-184.5868682861328	787.7956542968752	-790.5640258789065	-223.0814361572266	698.8081665039064	-770.3723754882815	-196.4073638916016	568.5133666992189	-782.1494750976565	-189.7945251464844	538.1518554687501	-909.6413574218752	-280.5305175781251	478.208465576172	-785.0786743164065	-378.1063232421876	517.9281005859376	-752.7089843750001	-363.2024841308594	473.5979309082032	-758.1252441406251	-406.2342224121095	442.745086669922	-786.8208618164065	-569.8821411132814	460.790985107422	-758.5889892578126	-598.6702880859376	504.8376770019532	-821.2082519531252	-608.4321899414064	297.7237854003907	-812.700134277344	-611.0361328125001	296.7066040039063	-767.6608886718751	-646.8074340820314	349.1115722656251	-724.7377929687501	-545.6295776367189	421.9440917968751	-838.2742309570315	nan	nan	nan	nan	nan	nan	nan	nan	nan	
